# xmcd CD database file
#
# Track frame offsets:
#	150
#	43513
#	80970
#	147217
#	192229
#	225634
#
# Disc length: 3942 seconds
#
# Revision: 1
# Processed by: cddbd v1.5.1PL2 Copyright (c) Steve Scherf et al.
# Submitted via: CDex 1.51
#
DISCID=4d0f6406
DTITLE=Colosseum - Live
DYEAR=1971
DGENRE=Blues
TTITLE0=Rope Ladder To The Moon
TTITLE1=Walking In The Park
TTITLE2=Skelington
TTITLE3=Tenglewood '63
TTITLE4=Encore ... Stormy Monday Blues
TTITLE5=Lost Angeles
EXTD=YEAR: 1971
EXTT0=
EXTT1=
EXTT2=
EXTT3=
EXTT4=
EXTT5=
PLAYORDER=
